# xmcd CD database file
#
# Track frame offsets:
#	150
#	19065
#	36590
#	54975
#	72402
#	89997
#	111627
#	127937
#	145585
#	164737
#
# Disc length: 2461 seconds
#
# Revision: 3
# Processed by: cddbd v1.5.1PL0 Copyright (c) Steve Scherf et al.
# Submitted via: CDex 1.51
#
DISCID=98099b0a
DTITLE=Janita - Sävyjä
DYEAR=1994
DGENRE=Blues
TTITLE0=Jos Ikävä Tuntuu Tältä
TTITLE1=Ei Mikään Oo Mahdotonta
TTITLE2=Enkeli
TTITLE3=Anna Hetkinen Aikaa
TTITLE4=Mä Lähden Taas
TTITLE5=Sä Löysit Tien
TTITLE6=Se Taivaan Saa
TTITLE7=Avaa Ovesi Maailmaan
TTITLE8=Et Muuttua Saa
TTITLE9=Sävyjä
EXTD=YEAR: 1994
EXTT0=
EXTT1=
EXTT2=
EXTT3=
EXTT4=
EXTT5=
EXTT6=
EXTT7=
EXTT8=
EXTT9=
PLAYORDER=
